<svg width="23" height="29" viewBox="0 0 23 29" fill="none" xmlns="http://www.w3.org/2000/svg">
<path d="M21.7099 22.29C21.617 22.1963 21.5064 22.1219 21.3845 22.0711C21.2627 22.0203 21.132 21.9942 20.9999 21.9942C20.8679 21.9942 20.7372 22.0203 20.6154 22.0711C20.4935 22.1219 20.3829 22.1963 20.2899 22.29L16.9999 25.59V18C16.9999 17.7348 16.8946 17.4804 16.707 17.2929C16.5195 17.1054 16.2652 17 15.9999 17C15.7347 17 15.4804 17.1054 15.2928 17.2929C15.1053 17.4804 14.9999 17.7348 14.9999 18V25.59L11.7099 22.29C11.5216 22.1017 11.2662 21.9959 10.9999 21.9959C10.7336 21.9959 10.4782 22.1017 10.2899 22.29C10.1016 22.4783 9.99585 22.7337 9.99585 23C9.99585 23.2663 10.1016 23.5217 10.2899 23.71L15.2899 28.71C15.385 28.801 15.4972 28.8724 15.6199 28.92C15.7396 28.9729 15.8691 29.0002 15.9999 29.0002C16.1308 29.0002 16.2602 28.9729 16.3799 28.92C16.5027 28.8724 16.6148 28.801 16.7099 28.71L21.7099 23.71C21.8037 23.617 21.8781 23.5064 21.9288 23.3846C21.9796 23.2627 22.0057 23.132 22.0057 23C22.0057 22.868 21.9796 22.7373 21.9288 22.6154C21.8781 22.4936 21.8037 22.383 21.7099 22.29Z" fill="white"/>
<path d="M14.9999 12C14.9999 11.4477 15.4477 11 15.9999 11C16.5522 11 16.9999 11.4477 16.9999 12V20C16.9999 20.5523 16.5522 21 15.9999 21C15.4477 21 14.9999 20.5523 14.9999 20V12Z" fill="white"/>
<path d="M12.7099 5.29L7.70994 0.290003C7.61484 0.198963 7.50269 0.127598 7.37994 0.0800031C7.13648 -0.0200149 6.8634 -0.0200149 6.61994 0.0800031C6.49719 0.127598 6.38505 0.198963 6.28994 0.290003L1.28994 5.29C1.1967 5.38324 1.12274 5.49393 1.07228 5.61575C1.02182 5.73758 0.99585 5.86814 0.99585 6C0.99585 6.2663 1.10164 6.5217 1.28994 6.71C1.47825 6.89831 1.73364 7.00409 1.99994 7.00409C2.26624 7.00409 2.52164 6.89831 2.70994 6.71L5.99994 3.41V11C5.99994 11.2652 6.1053 11.5196 6.29283 11.7071C6.48037 11.8946 6.73472 12 6.99994 12C7.26516 12 7.51951 11.8946 7.70705 11.7071C7.89458 11.5196 7.99994 11.2652 7.99994 11V3.41L11.2899 6.71C11.3829 6.80373 11.4935 6.87813 11.6154 6.92889C11.7372 6.97966 11.8679 7.0058 11.9999 7.0058C12.132 7.0058 12.2627 6.97966 12.3845 6.92889C12.5064 6.87813 12.617 6.80373 12.7099 6.71C12.8037 6.61704 12.8781 6.50644 12.9288 6.38458C12.9796 6.26272 13.0057 6.13202 13.0057 6C13.0057 5.86799 12.9796 5.73729 12.9288 5.61543C12.8781 5.49357 12.8037 5.38297 12.7099 5.29Z" fill="white"/>
<path d="M5.99994 9C5.99994 8.44772 6.44766 8 6.99994 8C7.55223 8 7.99994 8.44772 7.99994 9V17C7.99994 17.5523 7.55223 18 6.99994 18C6.44766 18 5.99994 17.5523 5.99994 17V9Z" fill="white"/>
</svg>
